<svg xmlns="http://www.w3.org/2000/svg" xmlns:xlink="http://www.w3.org/1999/xlink" contentStyleType="text/css" data-diagram-type="CLASS" height="870px" preserveAspectRatio="none" style="width:1459px;height:870px;background:#FFFFFF;" version="1.1" viewBox="0 0 1459 870" width="1459px" zoomAndPan="magnify"><defs/><g><!--class User--><g id="elem_User"><rect codeLine="5" fill="#F1F1F1" height="237.8594" id="User" rx="2.5" ry="2.5" style="stroke:#181818;stroke-width:0.5;" width="208.3896" x="613.5" y="7"/><ellipse cx="673.3076" cy="28.2969" fill="#FFAAAA" rx="11" ry="11" style="stroke:#181818;stroke-width:1;"/><path d="M674.1514,35.0469 L671.6982,35.0469 L671.6982,24.7969 L668.5576,24.7969 L668.5576,22.6563 L677.292,22.6563 L677.292,24.7969 L674.1514,24.7969 L674.1514,35.0469 Z " fill="#000000"/><text fill="#000000" font-family="sans-serif" font-size="14" lengthAdjust="spacing" textLength="31.9102" x="717.9897" y="24.9951">User</text><text fill="#000000" font-family="sans-serif" font-size="14" lengthAdjust="spacing" textLength="80.2744" x="693.8076" y="41.292">(auth_user)</text><line style="stroke:#181818;stroke-width:0.5;" x1="614.5" x2="820.8896" y1="49.5938" y2="49.5938"/><path d="M626.9167,57.0573 C625.3067,57.0573 624,58.364 624,59.974 C624,60.1606 624,60.3473 624.035,60.5223 L620.5,64.0573 L620.5,66.3906 L624,66.3906 L624,64.0573 L626.3333,64.0573 L626.3333,62.8906 L626.3683,62.8556 C626.5433,62.8906 626.73,62.8906 626.9167,62.8906 C628.5267,62.8906 629.8333,61.584 629.8333,59.974 C629.8333,58.364 628.5267,57.0573 626.9167,57.0573 M627.5,58.224 C628.1417,58.224 628.6667,58.749 628.6667,59.3906 C628.6667,60.0323 628.1417,60.5573 627.5,60.5573 C626.8583,60.5573 626.3333,60.0323 626.3333,59.3906 C626.3333,58.749 626.8583,58.224 627.5,58.224 " fill="#B8861B"/><text fill="#000000" font-family="sans-serif" font-size="14" font-weight="bold" lengthAdjust="spacing" textLength="14.8203" x="635.7074" y="66.5889">id</text><text fill="#000000" font-family="sans-serif" font-size="14" lengthAdjust="spacing" textLength="97.3848" x="654.9779" y="66.5889">: BigAutoField</text><text fill="#000000" font-family="sans-serif" font-size="14" lengthAdjust="spacing" textLength="118.542" x="619.5" y="82.8857">email : CharField</text><text fill="#000000" font-family="sans-serif" font-size="14" lengthAdjust="spacing" textLength="165.1426" x="619.5" y="99.1826">firebase_uid : CharField</text><text fill="#000000" font-family="sans-serif" font-size="14" lengthAdjust="spacing" textLength="153.9932" x="619.5" y="115.4795">first_name : CharField</text><text fill="#000000" font-family="sans-serif" font-size="14" lengthAdjust="spacing" textLength="151.8877" x="619.5" y="131.7764">last_name : CharField</text><text fill="#000000" font-family="sans-serif" font-size="14" lengthAdjust="spacing" textLength="106.7568" x="619.5" y="148.0732">role : CharField</text><text fill="#000000" font-family="sans-serif" font-size="14" lengthAdjust="spacing" textLength="164.377" x="619.5" y="164.3701">is_active : BooleanField</text><text fill="#000000" font-family="sans-serif" font-size="14" lengthAdjust="spacing" textLength="153.043" x="619.5" y="180.667">is_staff : BooleanField</text><text fill="#000000" font-family="sans-serif" font-size="14" lengthAdjust="spacing" textLength="191.7822" x="619.5" y="196.9639">is_superuser : BooleanField</text><text fill="#000000" font-family="sans-serif" font-size="14" lengthAdjust="spacing" textLength="181.46" x="619.5" y="213.2607">last_login : DateTimeField</text><text fill="#000000" font-family="sans-serif" font-size="14" lengthAdjust="spacing" textLength="196.3896" x="619.5" y="229.5576">date_joined : DateTimeField</text><line style="stroke:#181818;stroke-width:0.5;" x1="614.5" x2="820.8896" y1="236.8594" y2="236.8594"/></g><!--class CompanyProfile--><g id="elem_CompanyProfile"><rect codeLine="19" fill="#F1F1F1" height="123.7813" id="CompanyProfile" rx="2.5" ry="2.5" style="stroke:#181818;stroke-width:0.5;" width="218.7666" x="7" y="398"/><ellipse cx="45.6228" cy="419.2969" fill="#FFAAAA" rx="11" ry="11" style="stroke:#181818;stroke-width:1;"/><path d="M46.4666,426.0469 L44.0134,426.0469 L44.0134,415.7969 L40.8728,415.7969 L40.8728,413.6563 L49.6072,413.6563 L49.6072,415.7969 L46.4666,415.7969 L46.4666,426.0469 Z " fill="#000000"/><text fill="#000000" font-family="sans-serif" font-size="14" lengthAdjust="spacing" textLength="110.6875" x="76.6643" y="415.9951">CompanyProfile</text><text fill="#000000" font-family="sans-serif" font-size="14" lengthAdjust="spacing" textLength="134.2715" x="64.8723" y="432.292">(company_profiles)</text><line style="stroke:#181818;stroke-width:0.5;" x1="8" x2="224.7666" y1="440.5938" y2="440.5938"/><path d="M20.4167,448.0573 C18.8067,448.0573 17.5,449.364 17.5,450.974 C17.5,451.1606 17.5,451.3473 17.535,451.5223 L14,455.0573 L14,457.3906 L17.5,457.3906 L17.5,455.0573 L19.8333,455.0573 L19.8333,453.8906 L19.8683,453.8556 C20.0433,453.8906 20.23,453.8906 20.4167,453.8906 C22.0267,453.8906 23.3333,452.584 23.3333,450.974 C23.3333,449.364 22.0267,448.0573 20.4167,448.0573 M21,449.224 C21.6417,449.224 22.1667,449.749 22.1667,450.3906 C22.1667,451.0323 21.6417,451.5573 21,451.5573 C20.3583,451.5573 19.8333,451.0323 19.8333,450.3906 C19.8333,449.749 20.3583,449.224 21,449.224 " fill="#B8861B"/><text fill="#000000" font-family="sans-serif" font-size="14" font-weight="bold" lengthAdjust="spacing" textLength="34.6992" x="29.2074" y="457.5889">user</text><text fill="#000000" font-family="sans-serif" font-size="14" lengthAdjust="spacing" textLength="116.6279" x="68.3568" y="457.5889">: OneToOneField</text><text fill="#000000" font-family="sans-serif" font-size="14" lengthAdjust="spacing" textLength="191.1602" x="13" y="473.8857">company_name : CharField</text><text fill="#000000" font-family="sans-serif" font-size="14" lengthAdjust="spacing" textLength="206.7666" x="13" y="490.1826">company_address : CharField</text><text fill="#000000" font-family="sans-serif" font-size="14" lengthAdjust="spacing" textLength="137.2793" x="13" y="506.4795">industry : CharField</text><line style="stroke:#181818;stroke-width:0.5;" x1="8" x2="224.7666" y1="513.7813" y2="513.7813"/></g><!--class ViewerProfile--><g id="elem_ViewerProfile"><rect codeLine="26" fill="#F1F1F1" height="254.1563" id="ViewerProfile" rx="2.5" ry="2.5" style="stroke:#181818;stroke-width:0.5;" width="285.3965" x="261" y="333"/><ellipse cx="341.271" cy="354.2969" fill="#FFAAAA" rx="11" ry="11" style="stroke:#181818;stroke-width:1;"/><path d="M342.1147,361.0469 L339.6616,361.0469 L339.6616,350.7969 L336.521,350.7969 L336.521,348.6563 L345.2554,348.6563 L345.2554,350.7969 L342.1147,350.7969 L342.1147,361.0469 Z " fill="#000000"/><text fill="#000000" font-family="sans-serif" font-size="14" lengthAdjust="spacing" textLength="91.9844" x="373.9561" y="350.9951">ViewerProfile</text><text fill="#000000" font-family="sans-serif" font-size="14" lengthAdjust="spacing" textLength="116.3545" x="361.771" y="367.292">(viewer_profiles)</text><line style="stroke:#181818;stroke-width:0.5;" x1="262" x2="545.3965" y1="375.5938" y2="375.5938"/><path d="M274.4167,383.0573 C272.8067,383.0573 271.5,384.364 271.5,385.974 C271.5,386.1606 271.5,386.3473 271.535,386.5223 L268,390.0573 L268,392.3906 L271.5,392.3906 L271.5,390.0573 L273.8333,390.0573 L273.8333,388.8906 L273.8683,388.8556 C274.0433,388.8906 274.23,388.8906 274.4167,388.8906 C276.0267,388.8906 277.3333,387.584 277.3333,385.974 C277.3333,384.364 276.0267,383.0573 274.4167,383.0573 M275,384.224 C275.6417,384.224 276.1667,384.749 276.1667,385.3906 C276.1667,386.0323 275.6417,386.5573 275,386.5573 C274.3583,386.5573 273.8333,386.0323 273.8333,385.3906 C273.8333,384.749 274.3583,384.224 275,384.224 " fill="#B8861B"/><text fill="#000000" font-family="sans-serif" font-size="14" font-weight="bold" lengthAdjust="spacing" textLength="34.6992" x="283.2074" y="392.5889">user</text><text fill="#000000" font-family="sans-serif" font-size="14" lengthAdjust="spacing" textLength="116.6279" x="322.3568" y="392.5889">: OneToOneField</text><text fill="#000000" font-family="sans-serif" font-size="14" lengthAdjust="spacing" textLength="264.6807" x="267" y="408.8857">onboarding_completed : BooleanField</text><text fill="#000000" font-family="sans-serif" font-size="14" lengthAdjust="spacing" textLength="139.0566" x="267" y="425.1826">birthday : DateField</text><text fill="#000000" font-family="sans-serif" font-size="14" lengthAdjust="spacing" textLength="129.5615" x="267" y="441.4795">gender : CharField</text><text fill="#000000" font-family="sans-serif" font-size="14" lengthAdjust="spacing" textLength="133.4717" x="267" y="457.7764">country : CharField</text><text fill="#000000" font-family="sans-serif" font-size="14" lengthAdjust="spacing" textLength="105.2939" x="267" y="474.0732">city : CharField</text><text fill="#000000" font-family="sans-serif" font-size="14" lengthAdjust="spacing" textLength="189.6904" x="267" y="490.3701">education_level : CharField</text><text fill="#000000" font-family="sans-serif" font-size="14" lengthAdjust="spacing" textLength="157.0488" x="267" y="506.667">occupation : CharField</text><text fill="#000000" font-family="sans-serif" font-size="14" lengthAdjust="spacing" textLength="225.7021" x="267" y="522.9639">content_preferences : JSONField</text><text fill="#000000" font-family="sans-serif" font-size="14" lengthAdjust="spacing" textLength="194.7764" x="267" y="539.2607">points : PositiveIntegerField</text><text fill="#000000" font-family="sans-serif" font-size="14" lengthAdjust="spacing" textLength="251.0977" x="267" y="555.5576">points_earned : PositiveIntegerField</text><text fill="#000000" font-family="sans-serif" font-size="14" lengthAdjust="spacing" textLength="273.3965" x="267" y="571.8545">points_redeemed : PositiveIntegerField</text><line style="stroke:#181818;stroke-width:0.5;" x1="262" x2="545.3965" y1="579.1563" y2="579.1563"/></g><!--class Video--><g id="elem_Video"><rect codeLine="41" fill="#F1F1F1" height="276.1563" id="Video" rx="2.5" ry="2.5" style="stroke:#181818;stroke-width:0.5;" width="255.4756" x="791" y="322"/><ellipse cx="894.7217" cy="338" fill="#FFAAAA" rx="11" ry="11" style="stroke:#181818;stroke-width:1;"/><path d="M895.5654,344.75 L893.1123,344.75 L893.1123,334.5 L889.9717,334.5 L889.9717,332.3594 L898.7061,332.3594 L898.7061,334.5 L895.5654,334.5 L895.5654,344.75 Z " fill="#000000"/><text fill="#000000" font-family="sans-serif" font-size="14" lengthAdjust="spacing" textLength="39.5322" x="915.2217" y="342.8467">Video</text><line style="stroke:#181818;stroke-width:0.5;" x1="792" x2="1045.4756" y1="354" y2="354"/><path d="M804.4167,361.4635 C802.8067,361.4635 801.5,362.7702 801.5,364.3802 C801.5,364.5669 801.5,364.7535 801.535,364.9285 L798,368.4635 L798,370.7969 L801.5,370.7969 L801.5,368.4635 L803.8333,368.4635 L803.8333,367.2969 L803.8683,367.2619 C804.0433,367.2969 804.23,367.2969 804.4167,367.2969 C806.0267,367.2969 807.3333,365.9902 807.3333,364.3802 C807.3333,362.7702 806.0267,361.4635 804.4167,361.4635 M805,362.6302 C805.6417,362.6302 806.1667,363.1552 806.1667,363.7969 C806.1667,364.4385 805.6417,364.9635 805,364.9635 C804.3583,364.9635 803.8333,364.4385 803.8333,363.7969 C803.8333,363.1552 804.3583,362.6302 805,362.6302 " fill="#B8861B"/><text fill="#000000" font-family="sans-serif" font-size="14" font-weight="bold" lengthAdjust="spacing" textLength="14.8203" x="813.2074" y="370.9951">id</text><text fill="#000000" font-family="sans-serif" font-size="14" lengthAdjust="spacing" textLength="97.3848" x="832.4779" y="370.9951">: BigAutoField</text><text fill="#000000" font-family="sans-serif" font-size="14" lengthAdjust="spacing" textLength="107.3037" x="797" y="387.292">title : CharField</text><text fill="#000000" font-family="sans-serif" font-size="14" lengthAdjust="spacing" textLength="155.7295" x="797" y="403.5889">description : TextField</text><text fill="#000000" font-family="sans-serif" font-size="14" lengthAdjust="spacing" textLength="141.8047" x="797" y="419.8857">category : CharField</text><text fill="#000000" font-family="sans-serif" font-size="14" lengthAdjust="spacing" textLength="137.6211" x="797" y="436.1826">visibility : CharField</text><text fill="#000000" font-family="sans-serif" font-size="14" lengthAdjust="spacing" textLength="138.4824" x="797" y="452.4795">video_url : URLField</text><text fill="#000000" font-family="sans-serif" font-size="14" lengthAdjust="spacing" textLength="171.2334" x="797" y="468.7764">thumbnail_url : URLField</text><path d="M804.86,475.5767 C804.65,475.5883 804.44,475.6117 804.2417,475.6817 C803.9267,475.7983 803.6233,475.9733 803.3667,476.23 A0.5833,0.5833 0 1 0 804.1717,477.035 C804.3,476.9067 804.4517,476.8367 804.615,476.7783 C805.0233,476.6383 805.525,476.6967 805.8517,477.035 C806.3067,477.49 806.3067,478.2483 805.8517,478.715 L804.1017,480.465 C803.5883,480.9783 803.1683,481.025 802.865,481.0133 C802.5617,481.0017 802.3867,480.8617 802.3867,480.8617 A0.5833,0.5833 0 1 0 801.8033,481.8883 C802.2,482.145 802.2,482.145 802.7833,482.18 C803.3667,482.215 804.1833,481.9933 804.895,481.27 L806.645,479.52 C807.555,478.61 807.555,477.14 806.645,476.2417 C806.3183,475.915 805.9333,475.7167 805.5133,475.6233 C805.3033,475.5767 805.07,475.5767 804.86,475.5883 M802.5267,478.2717 C801.9433,478.2483 801.1383,478.4467 800.45,479.1467 L798.7,480.8967 C797.79,481.8067 797.79,483.2767 798.7,484.175 C799.3533,484.8283 800.2867,485.015 801.1033,484.7233 C801.4183,484.6067 801.7217,484.4317 801.9783,484.175 A0.5833,0.5833 0 1 0 801.1733,483.37 C801.045,483.4983 800.8933,483.5683 800.73,483.6267 C800.3217,483.7667 799.82,483.7083 799.4933,483.37 C799.0383,482.915 799.0383,482.1567 799.4933,481.69 L801.2433,479.94 C801.71,479.4733 802.1183,479.415 802.445,479.4267 C802.7717,479.4383 802.9933,479.5317 802.9933,479.5317 A0.5833,0.5833 0 1 0 803.5067,478.505 C803.11,478.2717 803.11,478.2717 802.5267,478.2483 " fill="#AAAAAA"/><text fill="#000000" font-family="sans-serif" font-size="14" lengthAdjust="spacing" textLength="154.3828" x="812.7835" y="485.0732">uploader : ForeignKey</text><text fill="#000000" font-family="sans-serif" font-size="14" lengthAdjust="spacing" textLength="136.8418" x="797" y="501.3701">views : IntegerField</text><text fill="#000000" font-family="sans-serif" font-size="14" lengthAdjust="spacing" textLength="129.1035" x="797" y="517.667">likes : IntegerField</text><text fill="#000000" font-family="sans-serif" font-size="14" lengthAdjust="spacing" textLength="138.8447" x="797" y="533.9639">duration : CharField</text><text fill="#000000" font-family="sans-serif" font-size="14" lengthAdjust="spacing" textLength="201.3525" x="797" y="550.2607">upload_date : DateTimeField</text><text fill="#000000" font-family="sans-serif" font-size="14" lengthAdjust="spacing" textLength="221.8125" x="797" y="566.5576">view_limit : PositiveIntegerField</text><text fill="#000000" font-family="sans-serif" font-size="14" lengthAdjust="spacing" textLength="243.4756" x="797" y="582.8545">auto_private_after : DateTimeField</text><line style="stroke:#181818;stroke-width:0.5;" x1="792" x2="1045.4756" y1="590.1563" y2="590.1563"/></g><!--class VideoView--><g id="elem_VideoView"><rect codeLine="58" fill="#F1F1F1" height="123.7813" id="VideoView" rx="2.5" ry="2.5" style="stroke:#181818;stroke-width:0.5;" width="197.9102" x="704.5" y="707.5"/><ellipse cx="751.3569" cy="728.7969" fill="#FFAAAA" rx="11" ry="11" style="stroke:#181818;stroke-width:1;"/><path d="M752.2007,735.5469 L749.7476,735.5469 L749.7476,725.2969 L746.6069,725.2969 L746.6069,723.1563 L755.3413,723.1563 L755.3413,725.2969 L752.2007,725.2969 L752.2007,735.5469 Z " fill="#000000"/><text fill="#000000" font-family="sans-serif" font-size="14" lengthAdjust="spacing" textLength="73.0625" x="783.1738" y="725.4951">VideoView</text><text fill="#000000" font-family="sans-serif" font-size="14" lengthAdjust="spacing" textLength="95.6963" x="771.8569" y="741.792">(video_views)</text><line style="stroke:#181818;stroke-width:0.5;" x1="705.5" x2="901.4102" y1="750.0938" y2="750.0938"/><path d="M717.9167,757.5573 C716.3067,757.5573 715,758.864 715,760.474 C715,760.6606 715,760.8473 715.035,761.0223 L711.5,764.5573 L711.5,766.8906 L715,766.8906 L715,764.5573 L717.3333,764.5573 L717.3333,763.3906 L717.3683,763.3556 C717.5433,763.3906 717.73,763.3906 717.9167,763.3906 C719.5267,763.3906 720.8333,762.084 720.8333,760.474 C720.8333,758.864 719.5267,757.5573 717.9167,757.5573 M718.5,758.724 C719.1417,758.724 719.6667,759.249 719.6667,759.8906 C719.6667,760.5323 719.1417,761.0573 718.5,761.0573 C717.8583,761.0573 717.3333,760.5323 717.3333,759.8906 C717.3333,759.249 717.8583,758.724 718.5,758.724 " fill="#B8861B"/><text fill="#000000" font-family="sans-serif" font-size="14" font-weight="bold" lengthAdjust="spacing" textLength="14.8203" x="726.7074" y="767.0889">id</text><text fill="#000000" font-family="sans-serif" font-size="14" lengthAdjust="spacing" textLength="97.3848" x="745.9779" y="767.0889">: BigAutoField</text><path d="M718.36,773.8892 C718.15,773.9008 717.94,773.9242 717.7417,773.9942 C717.4267,774.1108 717.1233,774.2858 716.8667,774.5425 A0.5833,0.5833 0 1 0 717.6717,775.3475 C717.8,775.2192 717.9517,775.1492 718.115,775.0908 C718.5233,774.9508 719.025,775.0092 719.3517,775.3475 C719.8067,775.8025 719.8067,776.5608 719.3517,777.0275 L717.6017,778.7775 C717.0883,779.2908 716.6683,779.3375 716.365,779.3258 C716.0617,779.3142 715.8867,779.1742 715.8867,779.1742 A0.5833,0.5833 0 1 0 715.3033,780.2008 C715.7,780.4575 715.7,780.4575 716.2833,780.4925 C716.8667,780.5275 717.6833,780.3058 718.395,779.5825 L720.145,777.8325 C721.055,776.9225 721.055,775.4525 720.145,774.5542 C719.8183,774.2275 719.4333,774.0292 719.0133,773.9358 C718.8033,773.8892 718.57,773.8892 718.36,773.9008 M716.0267,776.5842 C715.4433,776.5608 714.6383,776.7592 713.95,777.4592 L712.2,779.2092 C711.29,780.1192 711.29,781.5892 712.2,782.4875 C712.8533,783.1408 713.7867,783.3275 714.6033,783.0358 C714.9183,782.9192 715.2217,782.7442 715.4783,782.4875 A0.5833,0.5833 0 1 0 714.6733,781.6825 C714.545,781.8108 714.3933,781.8808 714.23,781.9392 C713.8217,782.0792 713.32,782.0208 712.9933,781.6825 C712.5383,781.2275 712.5383,780.4692 712.9933,780.0025 L714.7433,778.2525 C715.21,777.7858 715.6183,777.7275 715.945,777.7392 C716.2717,777.7508 716.4933,777.8442 716.4933,777.8442 A0.5833,0.5833 0 1 0 717.0067,776.8175 C716.61,776.5842 716.61,776.5842 716.0267,776.5608 " fill="#AAAAAA"/><text fill="#000000" font-family="sans-serif" font-size="14" lengthAdjust="spacing" textLength="130.5732" x="726.2835" y="783.3857">video : ForeignKey</text><path d="M718.36,790.186 C718.15,790.1977 717.94,790.221 717.7417,790.291 C717.4267,790.4077 717.1233,790.5827 716.8667,790.8394 A0.5833,0.5833 0 1 0 717.6717,791.6444 C717.8,791.516 717.9517,791.446 718.115,791.3877 C718.5233,791.2477 719.025,791.306 719.3517,791.6444 C719.8067,792.0994 719.8067,792.8577 719.3517,793.3244 L717.6017,795.0744 C717.0883,795.5877 716.6683,795.6344 716.365,795.6227 C716.0617,795.611 715.8867,795.471 715.8867,795.471 A0.5833,0.5833 0 1 0 715.3033,796.4977 C715.7,796.7544 715.7,796.7544 716.2833,796.7894 C716.8667,796.8244 717.6833,796.6027 718.395,795.8794 L720.145,794.1294 C721.055,793.2194 721.055,791.7494 720.145,790.851 C719.8183,790.5244 719.4333,790.326 719.0133,790.2327 C718.8033,790.186 718.57,790.186 718.36,790.1977 M716.0267,792.881 C715.4433,792.8577 714.6383,793.056 713.95,793.756 L712.2,795.506 C711.29,796.416 711.29,797.886 712.2,798.7844 C712.8533,799.4377 713.7867,799.6244 714.6033,799.3327 C714.9183,799.216 715.2217,799.041 715.4783,798.7844 A0.5833,0.5833 0 1 0 714.6733,797.9794 C714.545,798.1077 714.3933,798.1777 714.23,798.236 C713.8217,798.376 713.32,798.3177 712.9933,797.9794 C712.5383,797.5244 712.5383,796.766 712.9933,796.2994 L714.7433,794.5494 C715.21,794.0827 715.6183,794.0244 715.945,794.036 C716.2717,794.0477 716.4933,794.141 716.4933,794.141 A0.5833,0.5833 0 1 0 717.0067,793.1144 C716.61,792.881 716.61,792.881 716.0267,792.8577 " fill="#AAAAAA"/><text fill="#000000" font-family="sans-serif" font-size="14" lengthAdjust="spacing" textLength="138.9404" x="726.2835" y="799.6826">viewer : ForeignKey</text><text fill="#000000" font-family="sans-serif" font-size="14" lengthAdjust="spacing" textLength="185.9102" x="710.5" y="815.9795">viewed_at : DateTimeField</text><line style="stroke:#181818;stroke-width:0.5;" x1="705.5" x2="901.4102" y1="823.2813" y2="823.2813"/></g><!--class VideoLike--><g id="elem_VideoLike"><rect codeLine="65" fill="#F1F1F1" height="123.7813" id="VideoLike" rx="2.5" ry="2.5" style="stroke:#181818;stroke-width:0.5;" width="181.5586" x="487.5" y="707.5"/><ellipse cx="530.2203" cy="728.7969" fill="#FFAAAA" rx="11" ry="11" style="stroke:#181818;stroke-width:1;"/><path d="M531.064,735.5469 L528.6109,735.5469 L528.6109,725.2969 L525.4703,725.2969 L525.4703,723.1563 L534.2046,723.1563 L534.2046,725.2969 L531.064,725.2969 L531.064,735.5469 Z " fill="#000000"/><text fill="#000000" font-family="sans-serif" font-size="14" lengthAdjust="spacing" textLength="67.9424" x="560.3881" y="725.4951">VideoLike</text><text fill="#000000" font-family="sans-serif" font-size="14" lengthAdjust="spacing" textLength="87.958" x="550.3803" y="741.792">(video_likes)</text><line style="stroke:#181818;stroke-width:0.5;" x1="488.5" x2="668.0586" y1="750.0938" y2="750.0938"/><path d="M500.9167,757.5573 C499.3067,757.5573 498,758.864 498,760.474 C498,760.6606 498,760.8473 498.035,761.0223 L494.5,764.5573 L494.5,766.8906 L498,766.8906 L498,764.5573 L500.3333,764.5573 L500.3333,763.3906 L500.3683,763.3556 C500.5433,763.3906 500.73,763.3906 500.9167,763.3906 C502.5267,763.3906 503.8333,762.084 503.8333,760.474 C503.8333,758.864 502.5267,757.5573 500.9167,757.5573 M501.5,758.724 C502.1417,758.724 502.6667,759.249 502.6667,759.8906 C502.6667,760.5323 502.1417,761.0573 501.5,761.0573 C500.8583,761.0573 500.3333,760.5323 500.3333,759.8906 C500.3333,759.249 500.8583,758.724 501.5,758.724 " fill="#B8861B"/><text fill="#000000" font-family="sans-serif" font-size="14" font-weight="bold" lengthAdjust="spacing" textLength="14.8203" x="509.7074" y="767.0889">id</text><text fill="#000000" font-family="sans-serif" font-size="14" lengthAdjust="spacing" textLength="97.3848" x="528.9779" y="767.0889">: BigAutoField</text><path d="M501.36,773.8892 C501.15,773.9008 500.94,773.9242 500.7417,773.9942 C500.4267,774.1108 500.1233,774.2858 499.8667,774.5425 A0.5833,0.5833 0 1 0 500.6717,775.3475 C500.8,775.2192 500.9517,775.1492 501.115,775.0908 C501.5233,774.9508 502.025,775.0092 502.3517,775.3475 C502.8067,775.8025 502.8067,776.5608 502.3517,777.0275 L500.6017,778.7775 C500.0883,779.2908 499.6683,779.3375 499.365,779.3258 C499.0617,779.3142 498.8867,779.1742 498.8867,779.1742 A0.5833,0.5833 0 1 0 498.3033,780.2008 C498.7,780.4575 498.7,780.4575 499.2833,780.4925 C499.8667,780.5275 500.6833,780.3058 501.395,779.5825 L503.145,777.8325 C504.055,776.9225 504.055,775.4525 503.145,774.5542 C502.8183,774.2275 502.4333,774.0292 502.0133,773.9358 C501.8033,773.8892 501.57,773.8892 501.36,773.9008 M499.0267,776.5842 C498.4433,776.5608 497.6383,776.7592 496.95,777.4592 L495.2,779.2092 C494.29,780.1192 494.29,781.5892 495.2,782.4875 C495.8533,783.1408 496.7867,783.3275 497.6033,783.0358 C497.9183,782.9192 498.2217,782.7442 498.4783,782.4875 A0.5833,0.5833 0 1 0 497.6733,781.6825 C497.545,781.8108 497.3933,781.8808 497.23,781.9392 C496.8217,782.0792 496.32,782.0208 495.9933,781.6825 C495.5383,781.2275 495.5383,780.4692 495.9933,780.0025 L497.7433,778.2525 C498.21,777.7858 498.6183,777.7275 498.945,777.7392 C499.2717,777.7508 499.4933,777.8442 499.4933,777.8442 A0.5833,0.5833 0 1 0 500.0067,776.8175 C499.61,776.5842 499.61,776.5842 499.0267,776.5608 " fill="#AAAAAA"/><text fill="#000000" font-family="sans-serif" font-size="14" lengthAdjust="spacing" textLength="130.5732" x="509.2835" y="783.3857">video : ForeignKey</text><path d="M501.36,790.186 C501.15,790.1977 500.94,790.221 500.7417,790.291 C500.4267,790.4077 500.1233,790.5827 499.8667,790.8394 A0.5833,0.5833 0 1 0 500.6717,791.6444 C500.8,791.516 500.9517,791.446 501.115,791.3877 C501.5233,791.2477 502.025,791.306 502.3517,791.6444 C502.8067,792.0994 502.8067,792.8577 502.3517,793.3244 L500.6017,795.0744 C500.0883,795.5877 499.6683,795.6344 499.365,795.6227 C499.0617,795.611 498.8867,795.471 498.8867,795.471 A0.5833,0.5833 0 1 0 498.3033,796.4977 C498.7,796.7544 498.7,796.7544 499.2833,796.7894 C499.8667,796.8244 500.6833,796.6027 501.395,795.8794 L503.145,794.1294 C504.055,793.2194 504.055,791.7494 503.145,790.851 C502.8183,790.5244 502.4333,790.326 502.0133,790.2327 C501.8033,790.186 501.57,790.186 501.36,790.1977 M499.0267,792.881 C498.4433,792.8577 497.6383,793.056 496.95,793.756 L495.2,795.506 C494.29,796.416 494.29,797.886 495.2,798.7844 C495.8533,799.4377 496.7867,799.6244 497.6033,799.3327 C497.9183,799.216 498.2217,799.041 498.4783,798.7844 A0.5833,0.5833 0 1 0 497.6733,797.9794 C497.545,798.1077 497.3933,798.1777 497.23,798.236 C496.8217,798.376 496.32,798.3177 495.9933,797.9794 C495.5383,797.5244 495.5383,796.766 495.9933,796.2994 L497.7433,794.5494 C498.21,794.0827 498.6183,794.0244 498.945,794.036 C499.2717,794.0477 499.4933,794.141 499.4933,794.141 A0.5833,0.5833 0 1 0 500.0067,793.1144 C499.61,792.881 499.61,792.881 499.0267,792.8577 " fill="#AAAAAA"/><text fill="#000000" font-family="sans-serif" font-size="14" lengthAdjust="spacing" textLength="122.8691" x="509.2835" y="799.6826">user : ForeignKey</text><text fill="#000000" font-family="sans-serif" font-size="14" lengthAdjust="spacing" textLength="169.5586" x="493.5" y="815.9795">liked_at : DateTimeField</text><line style="stroke:#181818;stroke-width:0.5;" x1="488.5" x2="668.0586" y1="823.2813" y2="823.2813"/></g><!--class VideoShare--><g id="elem_VideoShare"><rect codeLine="72" fill="#F1F1F1" height="172.6719" id="VideoShare" rx="2.5" ry="2.5" style="stroke:#181818;stroke-width:0.5;" width="202.9824" x="1250" y="683"/><ellipse cx="1295.9546" cy="704.2969" fill="#FFAAAA" rx="11" ry="11" style="stroke:#181818;stroke-width:1;"/><path d="M1296.7983,711.0469 L1294.3452,711.0469 L1294.3452,700.7969 L1291.2046,700.7969 L1291.2046,698.6563 L1299.939,698.6563 L1299.939,700.7969 L1296.7983,700.7969 L1296.7983,711.0469 Z " fill="#000000"/><text fill="#000000" font-family="sans-serif" font-size="14" lengthAdjust="spacing" textLength="80.2402" x="1327.6211" y="700.9951">VideoShare</text><text fill="#000000" font-family="sans-serif" font-size="14" lengthAdjust="spacing" textLength="102.5732" x="1316.4546" y="717.292">(video_shares)</text><line style="stroke:#181818;stroke-width:0.5;" x1="1251" x2="1451.9824" y1="725.5938" y2="725.5938"/><path d="M1263.4167,733.0573 C1261.8067,733.0573 1260.5,734.364 1260.5,735.974 C1260.5,736.1606 1260.5,736.3473 1260.535,736.5223 L1257,740.0573 L1257,742.3906 L1260.5,742.3906 L1260.5,740.0573 L1262.8333,740.0573 L1262.8333,738.8906 L1262.8683,738.8556 C1263.0433,738.8906 1263.23,738.8906 1263.4167,738.8906 C1265.0267,738.8906 1266.3333,737.584 1266.3333,735.974 C1266.3333,734.364 1265.0267,733.0573 1263.4167,733.0573 M1264,734.224 C1264.6417,734.224 1265.1667,734.749 1265.1667,735.3906 C1265.1667,736.0323 1264.6417,736.5573 1264,736.5573 C1263.3583,736.5573 1262.8333,736.0323 1262.8333,735.3906 C1262.8333,734.749 1263.3583,734.224 1264,734.224 " fill="#B8861B"/><text fill="#000000" font-family="sans-serif" font-size="14" font-weight="bold" lengthAdjust="spacing" textLength="14.8203" x="1272.2074" y="742.5889">id</text><text fill="#000000" font-family="sans-serif" font-size="14" lengthAdjust="spacing" textLength="97.3848" x="1291.4779" y="742.5889">: BigAutoField</text><path d="M1263.86,749.3892 C1263.65,749.4008 1263.44,749.4242 1263.2417,749.4942 C1262.9267,749.6108 1262.6233,749.7858 1262.3667,750.0425 A0.5833,0.5833 0 1 0 1263.1717,750.8475 C1263.3,750.7192 1263.4517,750.6492 1263.615,750.5908 C1264.0233,750.4508 1264.525,750.5092 1264.8517,750.8475 C1265.3067,751.3025 1265.3067,752.0608 1264.8517,752.5275 L1263.1017,754.2775 C1262.5883,754.7908 1262.1683,754.8375 1261.865,754.8258 C1261.5617,754.8142 1261.3867,754.6742 1261.3867,754.6742 A0.5833,0.5833 0 1 0 1260.8033,755.7008 C1261.2,755.9575 1261.2,755.9575 1261.7833,755.9925 C1262.3667,756.0275 1263.1833,755.8058 1263.895,755.0825 L1265.645,753.3325 C1266.555,752.4225 1266.555,750.9525 1265.645,750.0542 C1265.3183,749.7275 1264.9333,749.5292 1264.5133,749.4358 C1264.3033,749.3892 1264.07,749.3892 1263.86,749.4008 M1261.5267,752.0842 C1260.9433,752.0608 1260.1383,752.2592 1259.45,752.9592 L1257.7,754.7092 C1256.79,755.6192 1256.79,757.0892 1257.7,757.9875 C1258.3533,758.6408 1259.2867,758.8275 1260.1033,758.5358 C1260.4183,758.4192 1260.7217,758.2442 1260.9783,757.9875 A0.5833,0.5833 0 1 0 1260.1733,757.1825 C1260.045,757.3108 1259.8933,757.3808 1259.73,757.4392 C1259.3217,757.5792 1258.82,757.5208 1258.4933,757.1825 C1258.0383,756.7275 1258.0383,755.9692 1258.4933,755.5025 L1260.2433,753.7525 C1260.71,753.2858 1261.1183,753.2275 1261.445,753.2392 C1261.7717,753.2508 1261.9933,753.3442 1261.9933,753.3442 A0.5833,0.5833 0 1 0 1262.5067,752.3175 C1262.11,752.0842 1262.11,752.0842 1261.5267,752.0608 " fill="#AAAAAA"/><text fill="#000000" font-family="sans-serif" font-size="14" lengthAdjust="spacing" textLength="130.5732" x="1271.7835" y="758.8857">video : ForeignKey</text><path d="M1263.86,765.686 C1263.65,765.6977 1263.44,765.721 1263.2417,765.791 C1262.9267,765.9077 1262.6233,766.0827 1262.3667,766.3394 A0.5833,0.5833 0 1 0 1263.1717,767.1444 C1263.3,767.016 1263.4517,766.946 1263.615,766.8877 C1264.0233,766.7477 1264.525,766.806 1264.8517,767.1444 C1265.3067,767.5994 1265.3067,768.3577 1264.8517,768.8244 L1263.1017,770.5744 C1262.5883,771.0877 1262.1683,771.1344 1261.865,771.1227 C1261.5617,771.111 1261.3867,770.971 1261.3867,770.971 A0.5833,0.5833 0 1 0 1260.8033,771.9977 C1261.2,772.2544 1261.2,772.2544 1261.7833,772.2894 C1262.3667,772.3244 1263.1833,772.1027 1263.895,771.3794 L1265.645,769.6294 C1266.555,768.7194 1266.555,767.2494 1265.645,766.351 C1265.3183,766.0244 1264.9333,765.826 1264.5133,765.7327 C1264.3033,765.686 1264.07,765.686 1263.86,765.6977 M1261.5267,768.381 C1260.9433,768.3577 1260.1383,768.556 1259.45,769.256 L1257.7,771.006 C1256.79,771.916 1256.79,773.386 1257.7,774.2844 C1258.3533,774.9377 1259.2867,775.1244 1260.1033,774.8327 C1260.4183,774.716 1260.7217,774.541 1260.9783,774.2844 A0.5833,0.5833 0 1 0 1260.1733,773.4794 C1260.045,773.6077 1259.8933,773.6777 1259.73,773.736 C1259.3217,773.876 1258.82,773.8177 1258.4933,773.4794 C1258.0383,773.0244 1258.0383,772.266 1258.4933,771.7994 L1260.2433,770.0494 C1260.71,769.5827 1261.1183,769.5244 1261.445,769.536 C1261.7717,769.5477 1261.9933,769.641 1261.9933,769.641 A0.5833,0.5833 0 1 0 1262.5067,768.6144 C1262.11,768.381 1262.11,768.381 1261.5267,768.3577 " fill="#AAAAAA"/><text fill="#000000" font-family="sans-serif" font-size="14" lengthAdjust="spacing" textLength="170.1396" x="1271.7835" y="775.1826">created_by : ForeignKey</text><text fill="#000000" font-family="sans-serif" font-size="14" lengthAdjust="spacing" textLength="165.6963" x="1256" y="791.4795">share_token : CharField</text><text fill="#000000" font-family="sans-serif" font-size="14" lengthAdjust="spacing" textLength="189.8066" x="1256" y="807.7764">created_at : DateTimeField</text><text fill="#000000" font-family="sans-serif" font-size="14" lengthAdjust="spacing" textLength="190.9824" x="1256" y="824.0732">access_count : IntegerField</text><text fill="#000000" font-family="sans-serif" font-size="14" lengthAdjust="spacing" textLength="146.1934" x="1256" y="840.3701">active : BooleanField</text><line style="stroke:#181818;stroke-width:0.5;" x1="1251" x2="1451.9824" y1="847.6719" y2="847.6719"/></g><!--class WebcamRecording--><g id="elem_WebcamRecording"><rect codeLine="82" fill="#F1F1F1" height="188.9688" id="WebcamRecording" rx="2.5" ry="2.5" style="stroke:#181818;stroke-width:0.5;" width="277.1318" x="938" y="675"/><ellipse cx="996.813" cy="696.2969" fill="#FFAAAA" rx="11" ry="11" style="stroke:#181818;stroke-width:1;"/><path d="M997.6567,703.0469 L995.2036,703.0469 L995.2036,692.7969 L992.063,692.7969 L992.063,690.6563 L1000.7974,690.6563 L1000.7974,692.7969 L997.6567,692.7969 L997.6567,703.0469 Z " fill="#000000"/><text fill="#000000" font-family="sans-serif" font-size="14" lengthAdjust="spacing" textLength="132.1523" x="1026.7397" y="692.9951">WebcamRecording</text><text fill="#000000" font-family="sans-serif" font-size="14" lengthAdjust="spacing" textLength="151.0059" x="1017.313" y="709.292">(webcam_recordings)</text><line style="stroke:#181818;stroke-width:0.5;" x1="939" x2="1214.1318" y1="717.5938" y2="717.5938"/><path d="M951.4167,725.0573 C949.8067,725.0573 948.5,726.364 948.5,727.974 C948.5,728.1606 948.5,728.3473 948.535,728.5223 L945,732.0573 L945,734.3906 L948.5,734.3906 L948.5,732.0573 L950.8333,732.0573 L950.8333,730.8906 L950.8683,730.8556 C951.0433,730.8906 951.23,730.8906 951.4167,730.8906 C953.0267,730.8906 954.3333,729.584 954.3333,727.974 C954.3333,726.364 953.0267,725.0573 951.4167,725.0573 M952,726.224 C952.6417,726.224 953.1667,726.749 953.1667,727.3906 C953.1667,728.0323 952.6417,728.5573 952,728.5573 C951.3583,728.5573 950.8333,728.0323 950.8333,727.3906 C950.8333,726.749 951.3583,726.224 952,726.224 " fill="#B8861B"/><text fill="#000000" font-family="sans-serif" font-size="14" font-weight="bold" lengthAdjust="spacing" textLength="14.8203" x="960.2074" y="734.5889">id</text><text fill="#000000" font-family="sans-serif" font-size="14" lengthAdjust="spacing" textLength="97.3848" x="979.4779" y="734.5889">: BigAutoField</text><path d="M951.86,741.3892 C951.65,741.4008 951.44,741.4242 951.2417,741.4942 C950.9267,741.6108 950.6233,741.7858 950.3667,742.0425 A0.5833,0.5833 0 1 0 951.1717,742.8475 C951.3,742.7192 951.4517,742.6492 951.615,742.5908 C952.0233,742.4508 952.525,742.5092 952.8517,742.8475 C953.3067,743.3025 953.3067,744.0608 952.8517,744.5275 L951.1017,746.2775 C950.5883,746.7908 950.1683,746.8375 949.865,746.8258 C949.5617,746.8142 949.3867,746.6742 949.3867,746.6742 A0.5833,0.5833 0 1 0 948.8033,747.7008 C949.2,747.9575 949.2,747.9575 949.7833,747.9925 C950.3667,748.0275 951.1833,747.8058 951.895,747.0825 L953.645,745.3325 C954.555,744.4225 954.555,742.9525 953.645,742.0542 C953.3183,741.7275 952.9333,741.5292 952.5133,741.4358 C952.3033,741.3892 952.07,741.3892 951.86,741.4008 M949.5267,744.0842 C948.9433,744.0608 948.1383,744.2592 947.45,744.9592 L945.7,746.7092 C944.79,747.6192 944.79,749.0892 945.7,749.9875 C946.3533,750.6408 947.2867,750.8275 948.1033,750.5358 C948.4183,750.4192 948.7217,750.2442 948.9783,749.9875 A0.5833,0.5833 0 1 0 948.1733,749.1825 C948.045,749.3108 947.8933,749.3808 947.73,749.4392 C947.3217,749.5792 946.82,749.5208 946.4933,749.1825 C946.0383,748.7275 946.0383,747.9692 946.4933,747.5025 L948.2433,745.7525 C948.71,745.2858 949.1183,745.2275 949.445,745.2392 C949.7717,745.2508 949.9933,745.3442 949.9933,745.3442 A0.5833,0.5833 0 1 0 950.5067,744.3175 C950.11,744.0842 950.11,744.0842 949.5267,744.0608 " fill="#AAAAAA"/><text fill="#000000" font-family="sans-serif" font-size="14" lengthAdjust="spacing" textLength="130.5732" x="959.7835" y="750.8857">video : ForeignKey</text><path d="M951.86,757.686 C951.65,757.6977 951.44,757.721 951.2417,757.791 C950.9267,757.9077 950.6233,758.0827 950.3667,758.3394 A0.5833,0.5833 0 1 0 951.1717,759.1444 C951.3,759.016 951.4517,758.946 951.615,758.8877 C952.0233,758.7477 952.525,758.806 952.8517,759.1444 C953.3067,759.5994 953.3067,760.3577 952.8517,760.8244 L951.1017,762.5744 C950.5883,763.0877 950.1683,763.1344 949.865,763.1227 C949.5617,763.111 949.3867,762.971 949.3867,762.971 A0.5833,0.5833 0 1 0 948.8033,763.9977 C949.2,764.2544 949.2,764.2544 949.7833,764.2894 C950.3667,764.3244 951.1833,764.1027 951.895,763.3794 L953.645,761.6294 C954.555,760.7194 954.555,759.2494 953.645,758.351 C953.3183,758.0244 952.9333,757.826 952.5133,757.7327 C952.3033,757.686 952.07,757.686 951.86,757.6977 M949.5267,760.381 C948.9433,760.3577 948.1383,760.556 947.45,761.256 L945.7,763.006 C944.79,763.916 944.79,765.386 945.7,766.2844 C946.3533,766.9377 947.2867,767.1244 948.1033,766.8327 C948.4183,766.716 948.7217,766.541 948.9783,766.2844 A0.5833,0.5833 0 1 0 948.1733,765.4794 C948.045,765.6077 947.8933,765.6777 947.73,765.736 C947.3217,765.876 946.82,765.8177 946.4933,765.4794 C946.0383,765.0244 946.0383,764.266 946.4933,763.7994 L948.2433,762.0494 C948.71,761.5827 949.1183,761.5244 949.445,761.536 C949.7717,761.5477 949.9933,761.641 949.9933,761.641 A0.5833,0.5833 0 1 0 950.5067,760.6144 C950.11,760.381 950.11,760.381 949.5267,760.3577 " fill="#AAAAAA"/><text fill="#000000" font-family="sans-serif" font-size="14" lengthAdjust="spacing" textLength="151.9766" x="959.7835" y="767.1826">recorder : ForeignKey</text><text fill="#000000" font-family="sans-serif" font-size="14" lengthAdjust="spacing" textLength="140.957" x="944" y="783.4795">filename : CharField</text><text fill="#000000" font-family="sans-serif" font-size="14" lengthAdjust="spacing" textLength="220.5957" x="944" y="799.7764">recording_date : DateTimeField</text><text fill="#000000" font-family="sans-serif" font-size="14" lengthAdjust="spacing" textLength="167.166" x="944" y="816.0732">recording_url : URLField</text><text fill="#000000" font-family="sans-serif" font-size="14" lengthAdjust="spacing" textLength="177.6318" x="944" y="832.3701">upload_status : CharField</text><text fill="#000000" font-family="sans-serif" font-size="14" lengthAdjust="spacing" textLength="265.1318" x="944" y="848.667">upload_completed_at : DateTimeField</text><line style="stroke:#181818;stroke-width:0.5;" x1="939" x2="1214.1318" y1="855.9688" y2="855.9688"/></g><!--link User to CompanyProfile--><g id="link_User_CompanyProfile"><path codeLine="94" d="M613.07,155.6 C512.48,186.34 359,241.83 243.5,322 C213.53,342.81 185.37,371.78 163.22,397.73 " fill="transparent" id="User-CompanyProfile" style="stroke:#181818;stroke-width:1;"/><text fill="#000000" font-family="sans-serif" font-size="13" lengthAdjust="spacing" textLength="22.9785" x="316.5" y="288.0669">has</text><text fill="#000000" font-family="sans-serif" font-size="13" lengthAdjust="spacing" textLength="8.271" x="597.1028" y="154.2999">1</text><text fill="#000000" font-family="sans-serif" font-size="13" lengthAdjust="spacing" textLength="24.8066" x="143.2946" y="386.7501">0..1</text></g><!--link User to ViewerProfile--><g id="link_User_ViewerProfile"><path codeLine="95" d="M613.38,227.16 C597.49,242.98 581.42,259.3 566.5,275 C549,293.4 530.83,313.19 513.25,332.72 " fill="transparent" id="User-ViewerProfile" style="stroke:#181818;stroke-width:1;"/><text fill="#000000" font-family="sans-serif" font-size="13" lengthAdjust="spacing" textLength="22.9785" x="567.5" y="288.0669">has</text><text fill="#000000" font-family="sans-serif" font-size="13" lengthAdjust="spacing" textLength="8.271" x="597.0975" y="231.4082">1</text><text fill="#000000" font-family="sans-serif" font-size="13" lengthAdjust="spacing" textLength="24.8066" x="494.913" y="321.9942">0..1</text></g><!--link User to Video--><g id="link_User_Video"><path codeLine="96" d="M789.21,245.45 C804.21,270.22 820.14,296.53 835.5,321.91 " fill="transparent" id="User-Video" style="stroke:#181818;stroke-width:1;"/><text fill="#000000" font-family="sans-serif" font-size="13" lengthAdjust="spacing" textLength="51.0479" x="813.5" y="288.0669">uploads</text><text fill="#000000" font-family="sans-serif" font-size="13" lengthAdjust="spacing" textLength="8.271" x="785.1211" y="264.8641">1</text><text fill="#000000" font-family="sans-serif" font-size="13" lengthAdjust="spacing" textLength="6.5" x="824.7975" y="311.0143">*</text></g><!--link User to VideoView--><g id="link_User_VideoView"><path codeLine="97" d="M706.84,245.01 C700.85,351.69 701.02,511.95 739.5,645 C745.64,666.23 755.56,688.06 765.79,707.35 " fill="transparent" id="User-VideoView" style="stroke:#181818;stroke-width:1;"/><text fill="#000000" font-family="sans-serif" font-size="13" lengthAdjust="spacing" textLength="36.7085" x="727.5" y="464.5669">views</text><text fill="#000000" font-family="sans-serif" font-size="13" lengthAdjust="spacing" textLength="8.271" x="697.943" y="264.7944">1</text><text fill="#000000" font-family="sans-serif" font-size="13" lengthAdjust="spacing" textLength="6.5" x="755.117" y="696.3839">*</text></g><!--link User to VideoLike--><g id="link_User_VideoLike"><path codeLine="98" d="M684.65,245.01 C677.99,270.33 671.26,296.99 665.5,322 C633.97,458.79 604.28,620.88 589.08,707.19 " fill="transparent" id="User-VideoLike" style="stroke:#181818;stroke-width:1;"/><text fill="#000000" font-family="sans-serif" font-size="13" lengthAdjust="spacing" textLength="29.5229" x="666.5" y="464.5669">likes</text><text fill="#000000" font-family="sans-serif" font-size="13" lengthAdjust="spacing" textLength="8.271" x="674.4008" y="264.7944">1</text><text fill="#000000" font-family="sans-serif" font-size="13" lengthAdjust="spacing" textLength="6.5" x="583.9605" y="696.6407">*</text></g><!--link User to VideoShare--><g id="link_User_VideoShare"><path codeLine="99" d="M821.52,136.23 C941.96,152.61 1137.8,197.82 1247.5,322 C1336.29,422.51 1353.25,584.15 1354.47,682.9 " fill="transparent" id="User-VideoShare" style="stroke:#181818;stroke-width:1;"/><text fill="#000000" font-family="sans-serif" font-size="13" lengthAdjust="spacing" textLength="48.3247" x="1350.5" y="464.5669">creates</text><text fill="#000000" font-family="sans-serif" font-size="13" lengthAdjust="spacing" textLength="8.271" x="829.7857" y="133.5164">1</text><text fill="#000000" font-family="sans-serif" font-size="13" lengthAdjust="spacing" textLength="6.5" x="1348.4897" y="671.9">*</text></g><!--link User to WebcamRecording--><g id="link_User_WebcamRecording"><path codeLine="100" d="M821.57,162.65 C898.16,193.76 999.65,245.96 1063.5,322 C1160.83,437.92 1220.24,501.69 1171.5,645 C1168.02,655.24 1163.3,665.3 1157.83,674.98 " fill="transparent" id="User-WebcamRecording" style="stroke:#181818;stroke-width:1;"/><text fill="#000000" font-family="sans-serif" font-size="13" lengthAdjust="spacing" textLength="48.8135" x="1190.5" y="464.5669">records</text><text fill="#000000" font-family="sans-serif" font-size="13" lengthAdjust="spacing" textLength="8.271" x="829.8396" y="161.9592">1</text><text fill="#000000" font-family="sans-serif" font-size="13" lengthAdjust="spacing" textLength="6.5" x="1158.0866" y="663.9237">*</text></g><!--link Video to VideoView--><g id="link_Video_VideoView"><path codeLine="102" d="M867.22,598.11 C852.91,636.39 838.07,676.06 826.32,707.48 " fill="transparent" id="Video-VideoView" style="stroke:#181818;stroke-width:1;"/><text fill="#000000" font-family="sans-serif" font-size="13" lengthAdjust="spacing" textLength="62.1689" x="855.5" y="641.0669">viewed in</text><text fill="#000000" font-family="sans-serif" font-size="13" lengthAdjust="spacing" textLength="8.271" x="856.1913" y="618.1393">1</text><text fill="#000000" font-family="sans-serif" font-size="13" lengthAdjust="spacing" textLength="6.5" x="822.6458" y="696.529">*</text></g><!--link Video to VideoLike--><g id="link_Video_VideoLike"><path codeLine="103" d="M790.93,576.38 C741.75,620.86 687.51,669.91 646.14,707.32 " fill="transparent" id="Video-VideoLike" style="stroke:#181818;stroke-width:1;"/><text fill="#000000" font-family="sans-serif" font-size="13" lengthAdjust="spacing" textLength="46.9854" x="729.5" y="641.0669">liked in</text><text fill="#000000" font-family="sans-serif" font-size="13" lengthAdjust="spacing" textLength="8.271" x="774.9062" y="580.0811">1</text><text fill="#000000" font-family="sans-serif" font-size="13" lengthAdjust="spacing" textLength="6.5" x="647.6684" y="696.3505">*</text></g><!--link Video to VideoShare--><g id="link_Video_VideoShare"><path codeLine="104" d="M1046.29,545.24 C1103.83,583.89 1172.22,630.86 1232.5,675 C1238.22,679.19 1244.06,683.54 1249.93,687.96 " fill="transparent" id="Video-VideoShare" style="stroke:#181818;stroke-width:1;"/><text fill="#000000" font-family="sans-serif" font-size="13" lengthAdjust="spacing" textLength="63.4448" x="1192.5" y="641.0669">shared as</text><text fill="#000000" font-family="sans-serif" font-size="13" lengthAdjust="spacing" textLength="8.271" x="1054.3147" y="547.0435">1</text><text fill="#000000" font-family="sans-serif" font-size="13" lengthAdjust="spacing" textLength="6.5" x="1235.6177" y="677.9499">*</text></g><!--link Video to WebcamRecording--><g id="link_Video_WebcamRecording"><path codeLine="105" d="M944.85,598.48 C950.26,614.61 956.74,630.48 964.5,645 C969.96,655.21 976.44,665.25 983.5,674.91 " fill="transparent" id="Video-WebcamRecording" style="stroke:#181818;stroke-width:1;"/><text fill="#000000" font-family="sans-serif" font-size="13" lengthAdjust="spacing" textLength="96.0273" x="965.5" y="641.0669">has recordings</text><text fill="#000000" font-family="sans-serif" font-size="13" lengthAdjust="spacing" textLength="8.271" x="937.9971" y="618.0734">1</text><text fill="#000000" font-family="sans-serif" font-size="13" lengthAdjust="spacing" textLength="6.5" x="969.8647" y="663.8481">*</text></g><!--SRC=[fLPTJzim57tlh_2AjBKJ7-DbGgYg16oLDj10KBQNIPOJtxOUYHtPJg6QzjztxJHf4xkmYJwqyRdNphd7zzXzms4c993fsVdLvu5aEUnpCEcGf1apXZY0C4Fw3koJqOWCfljxayaPVePaFEwzMS-_kHmy3Sae6OzIbIbzkfUSd7mynk7R1rYDHqSU7PEdqL6ocJIf9grdCF_16PcG3mT2MfRQhPczNiNnte3U9tttyrCEM6aNjCJdONz8VlU88oBua9oISp4_AwsQ2CWuuf0paI5yiM2wncP2Gy8Cq5BmC6GizUMt0oXB5DSgwqB2K2n1B1r-hZ3Ev5R8M3QRnIDb0ThL54RzspCr5n9ZdvY5gSYX3d8SqryAbUL1z4yjtuNA2oPNDrhDH0OeP1j0ITCAe4M5c2rblT2uzhM4gSAl-itrb8WkTOXnhW4xgYEHvAMnUjM26wxV1Jo2tb1jZP7fqe__XwYIYMAQ2pcdZbW6rclLKJaHsYuuMwrLhE4vIEutfLrVARi582fi5m9UfimA9Ma6I-YseahJil3XO7rfGLei4cQWGQRWDFnwT_sjpYXmnwq3RvGHhjs-u8mvw7QS0jDLOpoVfe43vBiJjpQ7W_ARWhylcCyA6xZ3dIXQ5EkIf_1acv9HyxaAD5qA8nAHXSek7GDQQgVf_UrLyz95cISINH-6yE0fYqmnNdN9H6aGSta9AxyQF3erE_9auW4YC2zrRDUgrQbpPCIexXKq4xcmkxS33pQ5cowMpjHiPdtZxV2qtm9dZdextBFtXnF65_JIyOYA-En03XzmDeiA1Pmo-mAnArIk9kQU6s9UqjSGgrtUmjsg_y3g3dUheUK73I_ZHgyYbch0LtEQh8AeNvnQzG21qzUJ8jIn7L8qlg7-j0cxC7xDD0N_W2Hb-IsaoXzzM7K7mT8VFOBsNqElghzQ9R8vxfoENPxrMtSvPfCGU7bjDRnERMdYDcoE-XrjyOxSGkPjR1QYC3tttuBqZ_lau83qFnmUubFxbiH55YoQrxgYOcdlNGxAXh6AtOwuMmXpl7dZ6SvBcE5T5C_mROqfLMU5IPqkmCnAPzFhLHoV8OKtX90xqhQOFPDLi_EEuFWlCymB2QAUcsOmVm40]--></g></svg>